<svg id="svg" version="1.1" xmlns="http://www.w3.org/2000/svg" xmlns:xlink="http://www.w3.org/1999/xlink" width="400" height="400" viewBox="0, 0, 400,400"><g id="svgg"><path id="path0" d="M226.482 178.199 C 222.760 179.070,220.372 182.321,220.077 186.920 L 219.903 189.630 217.544 189.630 L 215.185 189.630 215.185 190.926 L 215.185 192.222 217.593 192.222 L 220.000 192.222 220.000 204.815 L 220.000 217.407 221.296 217.407 L 222.593 217.407 222.593 204.815 L 222.593 192.222 226.667 192.222 L 230.741 192.222 230.741 190.926 L 230.741 189.630 226.667 189.630 L 222.593 189.630 222.601 187.500 C 222.617 183.200,224.722 180.717,228.587 180.437 L 230.741 180.281 230.741 179.030 C 230.741 177.629,229.747 177.435,226.482 178.199 M94.673 182.315 L 90.415 186.111 90.406 197.593 L 90.396 209.074 94.623 212.870 L 98.850 216.667 111.691 216.667 L 124.533 216.667 128.563 212.922 L 132.593 209.177 132.582 205.237 L 132.571 201.296 128.508 197.662 L 124.444 194.028 124.444 201.644 L 124.444 209.259 111.667 209.259 L 98.889 209.259 98.889 197.593 L 98.889 185.926 115.741 185.926 L 132.593 185.926 132.593 182.222 L 132.593 178.519 115.761 178.519 L 98.930 178.519 94.673 182.315 M166.715 189.266 C 153.711 192.002,151.469 210.834,163.457 216.637 C 169.370 219.499,177.698 217.530,180.623 212.578 C 181.622 210.887,181.852 211.236,181.852 214.444 L 181.852 217.407 183.148 217.407 L 184.444 217.407 184.444 203.519 L 184.444 189.630 183.148 189.630 L 181.852 189.630 181.852 192.593 C 181.852 195.802,181.622 196.150,180.623 194.459 C 178.364 190.635,171.820 188.191,166.715 189.266 M198.412 189.394 C 194.567 190.475,192.022 193.818,192.357 197.344 C 192.707 201.015,194.557 202.600,200.295 204.142 C 206.988 205.942,209.099 207.461,209.021 210.423 C 208.869 216.247,197.473 217.640,194.351 212.216 C 193.559 210.839,193.516 210.819,192.511 211.339 C 191.265 211.983,191.253 212.141,192.325 213.742 C 196.360 219.764,208.282 219.333,210.970 213.067 C 213.023 208.284,210.359 204.607,203.519 202.780 C 195.364 200.602,193.116 198.162,195.565 194.145 C 198.002 190.148,207.162 190.931,208.605 195.261 C 208.694 195.526,209.089 195.441,209.732 195.020 C 213.436 192.593,203.896 187.851,198.412 189.394 M242.231 189.460 C 231.289 192.523,227.978 206.499,236.358 214.257 C 242.496 219.940,252.012 219.085,256.935 212.407 L 257.754 211.296 257.766 214.352 L 257.778 217.407 259.074 217.407 L 260.370 217.407 260.370 203.519 L 260.370 189.630 259.074 189.630 L 257.778 189.630 257.766 192.685 L 257.754 195.741 256.935 194.630 C 253.611 190.121,247.520 187.979,242.231 189.460 M278.366 189.303 C 276.388 189.767,274.714 190.864,273.167 192.708 L 271.866 194.259 271.859 191.944 L 271.852 189.630 270.556 189.630 L 269.259 189.630 269.259 203.519 L 269.259 217.407 270.556 217.407 L 271.852 217.407 271.852 208.401 C 271.852 194.905,273.602 191.481,280.502 191.481 C 286.809 191.481,287.739 193.510,287.762 207.315 L 287.778 217.407 289.047 217.407 L 290.317 217.407 290.436 207.500 C 290.566 196.768,290.668 196.206,292.945 193.797 C 296.449 190.088,303.001 190.814,305.273 195.162 L 306.296 197.122 306.296 207.265 L 306.296 217.407 307.618 217.407 L 308.940 217.407 308.822 206.944 L 308.704 196.481 307.593 194.259 C 304.422 187.918,295.028 187.122,290.926 192.848 C 289.566 194.746,289.589 194.743,288.729 193.147 C 286.999 189.934,282.612 188.307,278.366 189.303 M150.926 189.508 C 148.255 190.096,145.999 191.616,144.975 193.518 C 143.962 195.399,143.704 195.136,143.704 192.222 L 143.704 189.630 142.407 189.630 L 141.111 189.630 141.111 203.519 L 141.111 217.407 142.407 217.407 L 143.704 217.407 143.704 208.771 C 143.704 198.336,143.976 196.995,146.613 194.437 C 148.262 192.838,150.383 191.852,152.173 191.852 C 152.829 191.852,152.963 191.632,152.963 190.556 C 152.963 189.213,152.755 189.106,150.926 189.508 M175.505 192.785 C 180.796 195.668,183.283 202.929,180.821 208.304 C 175.318 220.314,158.148 216.690,158.148 203.519 C 158.148 194.362,167.634 188.496,175.505 192.785 M250.212 192.101 C 254.601 193.589,257.778 198.383,257.778 203.519 C 257.778 216.444,240.689 220.300,235.263 208.600 C 230.808 198.994,240.146 188.687,250.212 192.101 M113.704 197.593 L 113.704 203.333 117.963 203.333 L 122.222 203.333 122.222 197.593 L 122.222 191.852 117.963 191.852 L 113.704 191.852 113.704 197.593 " stroke="none" fill="#232323" fill-rule="evenodd"></path><path id="path1" d="M0.000 200.000 L 0.000 400.000 200.000 400.000 L 400.000 400.000 400.000 200.000 L 400.000 0.000 200.000 0.000 L 0.000 0.000 0.000 200.000 M231.111 179.022 C 231.111 180.259,231.099 180.268,229.059 180.479 C 225.045 180.893,222.963 183.286,222.963 187.486 L 222.963 189.630 227.037 189.630 L 231.111 189.630 231.111 190.926 L 231.111 192.222 227.037 192.222 L 222.963 192.222 222.963 204.815 L 222.963 217.407 221.296 217.407 L 219.630 217.407 219.630 204.815 L 219.630 192.222 217.222 192.222 L 214.815 192.222 214.815 190.926 L 214.815 189.630 217.169 189.630 L 219.523 189.630 219.732 186.863 C 220.174 181.014,223.415 177.837,228.981 177.794 L 231.111 177.778 231.111 179.022 M132.963 178.683 C 132.963 179.059,133.487 179.252,134.722 179.332 L 136.481 179.444 136.481 183.333 L 136.481 187.222 119.537 187.319 L 102.593 187.415 102.593 198.337 L 102.593 209.259 113.519 209.259 L 124.444 209.259 124.444 206.852 L 124.444 204.444 120.926 204.444 C 118.045 204.444,117.407 204.344,117.407 203.889 C 117.407 203.469,116.955 203.333,115.556 203.333 L 113.704 203.333 113.704 197.593 L 113.704 191.852 117.963 191.852 C 121.502 191.852,122.222 191.946,122.222 192.407 C 122.222 192.827,122.675 192.963,124.074 192.963 C 125.857 192.963,125.926 193.002,125.926 194.005 C 125.926 194.679,126.318 195.422,127.037 196.111 L 128.148 197.176 128.148 196.150 C 128.148 194.763,128.314 194.860,132.776 198.851 L 136.667 202.333 136.667 206.291 L 136.667 210.249 132.256 214.199 L 127.845 218.148 115.475 218.148 C 105.171 218.148,102.984 218.057,102.386 217.604 C 101.990 217.305,101.069 217.055,100.338 217.049 C 99.175 217.039,98.468 216.547,94.689 213.116 L 90.370 209.195 90.370 197.599 L 90.370 186.003 94.717 182.075 L 99.064 178.148 116.013 178.148 C 130.547 178.148,132.963 178.224,132.963 178.683 M176.037 190.306 C 177.543 191.048,179.055 192.162,179.981 193.214 L 181.481 194.919 181.481 192.274 L 181.481 189.630 183.148 189.630 L 184.815 189.630 184.815 203.519 L 184.815 217.407 183.148 217.407 L 181.481 217.407 181.481 214.763 L 181.481 212.118 179.981 213.823 C 173.678 220.983,160.951 218.945,156.585 210.076 C 150.474 197.662,163.691 184.228,176.037 190.306 M205.576 189.452 C 208.260 190.399,211.510 193.499,210.883 194.514 C 210.066 195.837,208.576 195.900,207.834 194.642 C 205.637 190.919,198.062 190.657,195.884 194.230 C 193.398 198.306,196.072 200.843,205.070 202.947 C 213.091 204.822,214.374 213.296,207.222 217.162 C 204.968 218.381,198.306 218.337,195.926 217.089 C 192.572 215.330,190.435 212.531,191.716 211.574 C 193.390 210.322,193.604 210.326,194.368 211.620 C 197.423 216.798,206.996 216.710,208.560 211.490 C 209.528 208.258,207.276 206.262,200.630 204.465 C 194.641 202.845,192.511 201.255,192.030 198.045 C 191.072 191.656,198.488 186.951,205.576 189.452 M251.977 190.140 C 253.144 190.711,254.941 192.033,255.970 193.079 L 257.841 194.980 257.777 193.138 C 257.651 189.550,257.617 189.630,259.259 189.630 L 260.741 189.630 260.741 203.519 L 260.741 217.407 259.259 217.407 L 257.778 217.407 257.778 214.765 L 257.778 212.122 255.938 213.991 C 247.826 222.231,233.057 217.411,231.565 206.035 C 229.994 194.065,241.572 185.049,251.977 190.140 M285.493 189.853 C 287.028 190.618,288.552 192.061,289.482 193.633 C 289.520 193.696,290.370 192.929,291.371 191.927 C 295.383 187.915,302.660 187.817,306.369 191.725 C 308.860 194.350,309.060 195.427,309.196 206.944 L 309.319 217.407 307.623 217.407 L 305.926 217.407 305.918 207.315 C 305.911 198.325,305.835 197.059,305.230 195.725 C 303.122 191.084,296.813 190.146,293.283 193.948 C 290.988 196.420,290.936 196.706,290.811 207.500 L 290.697 217.407 289.068 217.407 L 287.439 217.407 287.331 206.731 L 287.222 196.055 286.205 194.519 C 283.623 190.620,277.256 190.668,274.249 194.610 C 272.462 196.953,272.222 198.582,272.222 208.392 L 272.222 217.407 270.556 217.407 L 268.889 217.407 268.889 203.519 L 268.889 189.630 270.556 189.630 L 272.222 189.630 272.222 191.494 L 272.222 193.359 273.423 191.991 C 276.177 188.855,281.572 187.899,285.493 189.853 M153.333 190.523 C 153.333 191.722,153.252 191.800,151.759 192.049 C 145.446 193.100,144.074 196.086,144.074 208.771 L 144.074 217.407 142.593 217.407 L 141.111 217.407 141.111 203.519 L 141.111 189.630 142.593 189.630 L 144.074 189.630 144.075 191.944 L 144.077 194.259 144.780 193.107 C 146.824 189.754,153.333 187.788,153.333 190.523 M167.309 191.863 C 158.628 194.043,155.420 204.964,161.505 211.622 C 168.743 219.542,181.296 214.402,181.296 203.519 C 181.296 195.808,174.419 190.077,167.309 191.863 M243.022 192.042 C 233.673 194.654,231.468 207.565,239.398 213.261 C 247.044 218.751,257.538 213.116,257.538 203.519 C 257.538 195.682,250.346 189.996,243.022 192.042 " stroke="none" fill="#fbfbfb" fill-rule="evenodd"></path><path id="path2" d="M107.315 186.203 C 112.051 186.262,119.801 186.262,124.537 186.203 C 129.273 186.145,125.398 186.097,115.926 186.097 C 106.454 186.097,102.579 186.145,107.315 186.203 M153.056 190.556 C 153.060 191.370,153.136 191.660,153.225 191.199 C 153.314 190.739,153.310 190.072,153.217 189.718 C 153.125 189.364,153.052 189.741,153.056 190.556 M181.608 192.407 C 181.610 194.037,181.675 194.658,181.753 193.787 C 181.831 192.915,181.830 191.582,181.751 190.824 C 181.671 190.065,181.607 190.778,181.608 192.407 M155.279 203.519 C 155.283 204.333,155.359 204.623,155.447 204.162 C 155.536 203.702,155.532 203.035,155.440 202.681 C 155.347 202.327,155.274 202.704,155.279 203.519 M181.567 203.704 C 181.567 204.417,181.644 204.708,181.737 204.352 C 181.830 203.995,181.830 203.412,181.737 203.056 C 181.644 202.699,181.567 202.991,181.567 203.704 M181.608 214.630 C 181.610 216.259,181.675 216.880,181.753 216.009 C 181.831 215.138,181.830 213.804,181.751 213.046 C 181.671 212.287,181.607 213.000,181.608 214.630 M107.130 216.944 C 110.338 217.005,115.588 217.005,118.796 216.944 C 122.005 216.882,119.380 216.832,112.963 216.832 C 106.546 216.832,103.921 216.882,107.130 216.944 " stroke="none" fill="#848484" fill-rule="evenodd"></path><path id="path3" d="M132.963 182.963 L 132.963 186.296 115.926 186.296 L 98.889 186.296 98.889 197.778 L 98.889 209.259 100.741 209.259 L 102.593 209.259 102.593 197.963 L 102.593 186.667 119.444 186.667 L 136.296 186.667 136.296 183.148 L 136.296 179.630 134.630 179.630 L 132.963 179.630 132.963 182.963 M122.222 198.148 L 122.222 203.333 120.000 203.333 C 118.765 203.333,117.778 203.498,117.778 203.704 C 117.778 203.923,119.136 204.074,121.111 204.074 L 124.444 204.074 124.444 199.000 C 124.444 195.053,124.543 194.025,124.889 194.370 C 125.579 195.061,125.926 194.900,125.926 193.889 C 125.926 193.025,125.802 192.963,124.074 192.963 L 122.222 192.963 122.222 198.148 M128.519 196.454 C 128.519 197.192,129.089 197.975,130.741 199.504 L 132.963 201.561 132.963 205.366 L 132.963 209.171 128.686 213.011 L 124.409 216.852 113.408 217.045 L 102.407 217.239 115.307 217.323 L 128.207 217.407 132.216 213.796 L 136.225 210.185 136.261 206.369 L 136.296 202.554 134.167 200.605 C 127.986 194.952,128.519 195.343,128.519 196.454 " stroke="none" fill="#bcbcbc" fill-rule="evenodd"></path><path id="path4" d="M132.730 182.222 C 132.730 184.361,132.791 185.236,132.866 184.167 C 132.940 183.097,132.940 181.347,132.866 180.278 C 132.791 179.208,132.730 180.083,132.730 182.222 M260.538 203.519 C 260.538 211.259,260.587 214.479,260.648 210.673 C 260.708 206.866,260.708 200.533,260.648 196.598 C 260.588 192.664,260.538 195.778,260.538 203.519 M132.671 205.156 C 132.610 208.171,132.454 209.184,131.958 209.786 L 131.324 210.556 132.157 209.791 C 132.936 209.076,132.983 208.776,132.870 205.161 L 132.749 201.296 132.671 205.156 " stroke="none" fill="#7c7c7c" fill-rule="evenodd"></path><path id="path5" d="M230.834 179.074 C 230.838 179.889,230.914 180.179,231.003 179.718 C 231.091 179.257,231.088 178.591,230.995 178.236 C 230.903 177.882,230.830 178.259,230.834 179.074 M219.731 188.148 C 219.731 189.065,219.803 189.440,219.891 188.981 C 219.979 188.523,219.979 187.773,219.891 187.315 C 219.803 186.856,219.731 187.231,219.731 188.148 M143.754 191.944 C 143.726 193.319,143.830 194.444,143.984 194.444 C 144.138 194.444,144.215 193.653,144.154 192.685 C 143.962 189.642,143.806 189.354,143.754 191.944 M230.834 190.926 C 230.838 191.741,230.914 192.030,231.003 191.570 C 231.091 191.109,231.088 190.442,230.995 190.088 C 230.903 189.734,230.830 190.111,230.834 190.926 M219.796 204.815 C 219.796 211.843,219.846 214.718,219.907 211.204 C 219.968 207.690,219.968 201.940,219.907 198.426 C 219.846 194.912,219.796 197.787,219.796 204.815 M143.862 209.444 C 143.862 213.926,143.915 215.708,143.980 213.405 C 144.045 211.102,144.045 207.436,143.980 205.257 C 143.915 203.079,143.861 204.963,143.862 209.444 M99.541 216.929 C 100.002 217.017,100.669 217.014,101.023 216.921 C 101.377 216.828,101.000 216.756,100.185 216.760 C 99.370 216.764,99.081 216.840,99.541 216.929 " stroke="none" fill="#a3a3a3" fill-rule="evenodd"></path><path id="path6" d="M111.044 186.944 C 115.794 187.003,123.461 187.003,128.081 186.944 C 132.701 186.885,128.815 186.837,119.444 186.837 C 110.074 186.837,106.294 186.886,111.044 186.944 M214.908 190.926 C 214.912 191.741,214.988 192.030,215.077 191.570 C 215.165 191.109,215.162 190.442,215.069 190.088 C 214.977 189.734,214.904 190.111,214.908 190.926 M271.967 191.667 C 271.969 192.889,272.038 193.344,272.120 192.679 C 272.203 192.013,272.201 191.013,272.116 190.456 C 272.032 189.900,271.965 190.444,271.967 191.667 M309.049 208.333 C 309.049 213.426,309.101 215.561,309.165 213.077 C 309.229 210.594,309.230 206.427,309.166 203.818 C 309.102 201.209,309.050 203.241,309.049 208.333 M290.529 209.074 C 290.529 213.759,290.583 215.625,290.647 213.220 C 290.712 210.815,290.712 206.981,290.647 204.701 C 290.582 202.421,290.529 204.389,290.529 209.074 M272.010 209.259 C 272.010 213.843,272.063 215.718,272.128 213.426 C 272.193 211.134,272.193 207.384,272.128 205.093 C 272.063 202.801,272.010 204.676,272.010 209.259 M108.449 217.685 C 111.568 217.747,116.568 217.746,119.560 217.684 C 122.552 217.622,120.000 217.571,113.889 217.572 C 107.778 217.572,105.330 217.623,108.449 217.685 M125.833 217.669 C 126.292 217.757,127.042 217.757,127.500 217.669 C 127.958 217.581,127.583 217.508,126.667 217.508 C 125.750 217.508,125.375 217.581,125.833 217.669 " stroke="none" fill="#c4c4c4" fill-rule="evenodd"></path><path id="path7" d="M136.433 183.333 C 136.433 185.472,136.495 186.347,136.569 185.278 C 136.644 184.208,136.644 182.458,136.569 181.389 C 136.495 180.319,136.433 181.194,136.433 183.333 M128.234 196.296 C 128.234 197.009,128.310 197.301,128.403 196.944 C 128.497 196.588,128.497 196.005,128.403 195.648 C 128.310 195.292,128.234 195.583,128.234 196.296 M136.433 206.296 C 136.433 208.435,136.495 209.310,136.569 208.241 C 136.644 207.171,136.644 205.421,136.569 204.352 C 136.495 203.282,136.433 204.157,136.433 206.296 M117.736 204.182 C 117.898 204.343,119.515 204.425,121.330 204.365 L 124.630 204.254 121.035 204.071 C 119.059 203.971,117.574 204.021,117.736 204.182 M133.131 213.056 L 131.667 214.630 133.241 213.166 C 134.705 211.804,134.985 211.481,134.705 211.481 C 134.644 211.481,133.936 212.190,133.131 213.056 M129.239 216.574 L 127.963 217.963 129.352 216.687 C 130.645 215.499,130.911 215.185,130.628 215.185 C 130.566 215.185,129.941 215.810,129.239 216.574 " stroke="none" fill="#cdcdcd" fill-rule="evenodd"></path><path id="path8" d="M107.315 178.426 C 112.051 178.484,119.801 178.484,124.537 178.426 C 129.273 178.367,125.398 178.319,115.926 178.319 C 106.454 178.319,102.579 178.367,107.315 178.426 M133.801 179.525 C 134.364 179.610,135.198 179.608,135.653 179.520 C 136.109 179.432,135.648 179.362,134.630 179.365 C 133.611 179.368,133.238 179.440,133.801 179.525 M111.044 187.315 C 115.794 187.373,123.461 187.373,128.081 187.314 C 132.701 187.256,128.815 187.208,119.444 187.208 C 110.074 187.208,106.294 187.256,111.044 187.315 M222.686 188.333 C 222.690 189.148,222.766 189.438,222.855 188.977 C 222.943 188.516,222.940 187.850,222.847 187.496 C 222.754 187.142,222.682 187.519,222.686 188.333 M184.612 203.519 C 184.612 211.259,184.661 214.479,184.722 210.673 C 184.782 206.866,184.782 200.533,184.722 196.598 C 184.662 192.664,184.613 195.778,184.612 203.519 M269.057 203.519 C 269.057 211.259,269.106 214.479,269.166 210.673 C 269.226 206.866,269.226 200.533,269.166 196.598 C 269.106 192.664,269.057 195.778,269.057 203.519 M222.759 204.815 C 222.759 211.843,222.809 214.718,222.870 211.204 C 222.931 207.690,222.931 201.940,222.870 198.426 C 222.809 194.912,222.759 197.787,222.759 204.815 M131.836 198.241 C 133.371 199.876,133.704 200.170,133.704 199.892 C 133.704 199.832,132.912 199.041,131.944 198.133 L 130.185 196.481 131.836 198.241 M287.568 208.148 C 287.568 213.343,287.620 215.468,287.684 212.870 C 287.748 210.273,287.748 206.023,287.684 203.426 C 287.620 200.829,287.568 202.954,287.568 208.148 M306.087 208.333 C 306.086 213.426,306.138 215.561,306.202 213.077 C 306.266 210.594,306.267 206.427,306.203 203.818 C 306.139 201.209,306.087 203.241,306.087 208.333 M134.444 200.486 C 134.444 200.550,134.986 201.092,135.648 201.690 L 136.852 202.778 135.764 201.574 C 134.750 200.452,134.444 200.200,134.444 200.486 M109.167 218.055 C 112.681 218.116,118.431 218.116,121.944 218.055 C 125.458 217.994,122.583 217.944,115.556 217.944 C 108.528 217.944,105.653 217.994,109.167 218.055 " stroke="none" fill="#dcdcdc" fill-rule="evenodd"></path></g></svg>